<?xml version="1.0" encoding="utf-8"?>
<!-- Generator: Adobe Illustrator 23.0.3, SVG Export Plug-In . SVG Version: 6.00 Build 0)  -->
<svg version="1.1" id="Capa_1" xmlns="http://www.w3.org/2000/svg" xmlns:xlink="http://www.w3.org/1999/xlink" x="0px" y="0px"
	 viewBox="0 0 2321.8 1140.3" style="enable-background:new 0 0 2321.8 1140.3;" xml:space="preserve">
<style type="text/css">
	.st105{fill:#1B476E;}
	.st106{fill:#2A2C2B;}
	.st107{fill:#1B2531;}
	.st108{fill:none;}
	.st109{fill:#4B90B9;}
	.st110{fill:none;stroke:#C6D4FF;stroke-width:0.7727;stroke-miterlimit:10;}
	.st111{fill:#FF9D81;}
	.st112{fill:#FFB7A4;}
	.st113{fill:none;stroke:#FF9D81;stroke-width:0.7727;stroke-miterlimit:10;}
	.st114{fill:none;stroke:#C6D4FF;stroke-width:0.7746;stroke-miterlimit:10;}
	.st115{fill:#6C83A2;}
	.st116{fill:#C6D4FF;}
	.st117{fill:#FFDFCA;}
</style>
<g id="Background">
	<g>
		<rect x="0.3" class="st105" width="2321.5" height="1140.3"/>
		<rect x="0.3" y="922.6" class="st106" width="2321.5" height="70.8"/>
		<rect x="-1.4" y="-3.3" class="st106" width="2323.2" height="100.6"/>
		<rect x="0.3" y="922.6" class="st107" width="2321.5" height="15.5"/>
		<rect x="2" y="-113.3" class="st108" width="2300" height="1296"/>
		<rect x="0.3" y="993.4" class="st109" width="2321.5" height="142.3"/>
	</g>
	<g>
		<rect x="219.9" y="492.3" class="st110" width="189.7" height="217.8"/>
		<rect x="236.6" y="509.2" class="st110" width="156.3" height="184"/>
		<path class="st111" d="M280.2,533.6c1.5,0,3.1,0.1,4.6,0.4c1.5,0.3,3,0.7,4.4,1.3c1.4,0.6,2.8,1.3,4,2.2c1.3,0.9,2.5,1.8,3.5,2.9
			c1.1,1.1,2,2.3,2.9,3.5c0.9,1.3,1.6,2.6,2.2,4c0.6,1.4,1,2.9,1.3,4.4c0.3,1.5,0.4,3,0.4,4.6c0,1.5-0.1,3.1-0.4,4.6
			c-0.3,1.5-0.7,3-1.3,4.4c-0.6,1.4-1.3,2.8-2.2,4c-0.9,1.3-1.8,2.5-2.9,3.5c-1.1,1.1-2.3,2-3.5,2.9c-1.3,0.9-2.6,1.6-4,2.2
			c-1.4,0.6-2.9,1-4.4,1.3c-1.5,0.3-3,0.4-4.6,0.4c-1.5,0-3.1-0.1-4.6-0.4c-1.5-0.3-3-0.7-4.4-1.3c-1.4-0.6-2.8-1.3-4-2.2
			c-1.3-0.9-2.5-1.8-3.5-2.9c-1.1-1.1-2-2.3-2.9-3.5c-0.9-1.3-1.6-2.6-2.2-4c-0.6-1.4-1-2.9-1.3-4.4c-0.3-1.5-0.4-3-0.4-4.6
			c0-1.5,0.1-3.1,0.4-4.6c0.3-1.5,0.7-3,1.3-4.4c0.6-1.4,1.3-2.8,2.2-4c0.9-1.3,1.8-2.5,2.9-3.5c1.1-1.1,2.3-2,3.5-2.9
			c1.3-0.9,2.6-1.6,4-2.2c1.4-0.6,2.9-1,4.4-1.3C277.1,533.8,278.6,533.6,280.2,533.6z"/>
		<rect x="260.2" y="610.7" class="st112" width="92.8" height="65.3"/>
		<rect x="284.8" y="549.1" class="st113" width="87.1" height="102.2"/>
	</g>
</g>
<g id="Circulo_reloj">
	<g>
		<path class="st110" d="M628.9,131.8c4.5-0.7,9-0.9,13.6-0.7c4.6,0.2,9.1,0.9,13.5,1.9c4.4,1.1,8.7,2.6,12.8,4.5
			c4.1,1.9,8,4.2,11.7,7c3.7,2.7,7,5.7,10.1,9.1c3.1,3.4,5.8,7,8.2,10.9s4.3,8,5.9,12.3c1.6,4.3,2.7,8.7,3.4,13.2s0.9,9,0.7,13.6
			c-0.2,4.6-0.9,9.1-1.9,13.5c-1.1,4.4-2.6,8.7-4.5,12.8c-1.9,4.1-4.2,8-7,11.7c-2.7,3.7-5.7,7-9.1,10.1c-3.4,3.1-7,5.8-10.9,8.2
			s-8,4.3-12.3,5.9c-4.3,1.6-8.7,2.7-13.2,3.4c-4.5,0.7-9,0.9-13.6,0.7c-4.6-0.2-9.1-0.9-13.5-1.9c-4.4-1.1-8.7-2.6-12.8-4.5
			c-4.1-1.9-8-4.2-11.7-7c-3.7-2.7-7-5.7-10.1-9.1c-3.1-3.4-5.8-7-8.2-10.9c-2.4-3.9-4.3-8-5.9-12.3c-1.6-4.3-2.7-8.7-3.4-13.2
			c-0.7-4.5-0.9-9-0.7-13.6c0.2-4.6,0.9-9.1,1.9-13.5c1.1-4.4,2.6-8.7,4.5-12.8c1.9-4.1,4.2-8,7-11.7c2.7-3.7,5.7-7,9.1-10.1
			c3.4-3.1,7-5.8,10.9-8.2c3.9-2.4,8-4.3,12.3-5.9C620,133.6,624.4,132.4,628.9,131.8z"/>
		<path class="st114" d="M635.5,145.1c3.6-0.3,7.3-0.2,10.9,0.3c3.6,0.5,7.1,1.3,10.6,2.4c3.5,1.2,6.8,2.6,9.9,4.4
			c3.2,1.8,6.1,3.9,8.9,6.3c2.7,2.4,5.2,5,7.5,7.9c2.2,2.9,4.2,5.9,5.8,9.2s2.9,6.6,3.9,10.2c1,3.5,1.6,7.1,1.8,10.7
			s0.2,7.3-0.3,10.9c-0.5,3.6-1.3,7.1-2.4,10.6c-1.2,3.5-2.6,6.8-4.4,9.9c-1.8,3.2-3.9,6.1-6.3,8.9c-2.4,2.8-5,5.2-7.9,7.5
			c-2.9,2.2-5.9,4.2-9.2,5.8c-3.3,1.6-6.6,2.9-10.2,3.9c-3.5,1-7.1,1.6-10.7,1.8c-3.6,0.3-7.3,0.2-10.9-0.3
			c-3.6-0.5-7.1-1.3-10.6-2.4c-3.5-1.2-6.8-2.6-9.9-4.4c-3.2-1.8-6.1-3.9-8.9-6.3c-2.7-2.4-5.2-5-7.5-7.9s-4.2-5.9-5.8-9.2
			c-1.6-3.3-2.9-6.6-3.9-10.2c-1-3.5-1.6-7.1-1.8-10.7c-0.3-3.6-0.2-7.3,0.3-10.9c0.5-3.6,1.3-7.1,2.4-10.6c1.2-3.5,2.6-6.8,4.4-9.9
			c1.8-3.2,3.9-6.1,6.3-8.9c2.4-2.7,5-5.2,7.9-7.5c2.9-2.2,5.9-4.2,9.2-5.8c3.3-1.6,6.6-2.9,10.2-3.9
			C628.3,145.9,631.9,145.3,635.5,145.1z"/>
		<g>
			<path class="st115" d="M637.4,164.5v-12.1c0-0.4,0.2-0.6,0.6-0.6h2.7c0.4,0,0.6,0.2,0.6,0.6v12.1c0,0.4-0.2,0.6-0.6,0.6H638
				C637.6,165.1,637.4,164.9,637.4,164.5z"/>
			<path class="st115" d="M619.7,170.3l-6.1-10.5c-0.2-0.3-0.1-0.6,0.2-0.8l2.3-1.3c0.3-0.2,0.6-0.1,0.8,0.2l6.1,10.5
				c0.2,0.3,0.1,0.6-0.2,0.8l-2.3,1.3C620.2,170.7,619.9,170.6,619.7,170.3z"/>
			<path class="st115" d="M607.2,184.1l-10.5-6.1c-0.3-0.2-0.4-0.5-0.2-0.8l1.3-2.3c0.2-0.3,0.5-0.4,0.8-0.2l10.5,6.1
				c0.3,0.2,0.4,0.5,0.2,0.8l-1.3,2.3C607.8,184.2,607.6,184.3,607.2,184.1z"/>
			<path class="st115" d="M603.4,202.4h-12.1c-0.4,0-0.6-0.2-0.6-0.6v-2.7c0-0.4,0.2-0.6,0.6-0.6h12.1c0.4,0,0.6,0.2,0.6,0.6v2.7
				C604,202.2,603.8,202.4,603.4,202.4z"/>
			<path class="st115" d="M609.3,220.1l-10.5,6.1c-0.3,0.2-0.6,0.1-0.8-0.2l-1.3-2.3c-0.2-0.3-0.1-0.6,0.2-0.8l10.5-6.1
				c0.3-0.2,0.6-0.1,0.8,0.2l1.3,2.3C609.7,219.6,609.6,219.9,609.3,220.1z"/>
			<path class="st115" d="M623.1,232.5L617,243c-0.2,0.3-0.5,0.4-0.8,0.2l-2.3-1.3c-0.3-0.2-0.4-0.5-0.2-0.8l6.1-10.5
				c0.2-0.3,0.5-0.4,0.8-0.2l2.3,1.3C623.2,231.9,623.3,232.1,623.1,232.5z"/>
			<path class="st115" d="M641.3,236.4v12.1c0,0.4-0.2,0.6-0.6,0.6H638c-0.4,0-0.6-0.2-0.6-0.6v-12.1c0-0.4,0.2-0.6,0.6-0.6h2.7
				C641.1,235.8,641.3,236,641.3,236.4z"/>
			<path class="st115" d="M659,230.5l6.1,10.5c0.2,0.3,0.1,0.6-0.2,0.8l-2.3,1.3c-0.3,0.2-0.6,0.1-0.8-0.2l-6.1-10.5
				c-0.2-0.3-0.1-0.6,0.2-0.8l2.3-1.3C658.5,230.1,658.8,230.2,659,230.5z"/>
			<path class="st115" d="M671.5,216.7l10.5,6.1c0.3,0.2,0.4,0.5,0.2,0.8l-1.3,2.3c-0.2,0.3-0.5,0.4-0.8,0.2l-10.5-6.1
				c-0.3-0.2-0.4-0.5-0.2-0.8l1.3-2.3C670.9,216.6,671.2,216.5,671.5,216.7z"/>
			<path class="st115" d="M675.3,198.5h12.1c0.4,0,0.6,0.2,0.6,0.6v2.7c0,0.4-0.2,0.6-0.6,0.6h-12.1c-0.4,0-0.6-0.2-0.6-0.6v-2.7
				C674.7,198.7,674.9,198.5,675.3,198.5z"/>
			<path class="st115" d="M669.5,180.8l10.5-6.1c0.3-0.2,0.6-0.1,0.8,0.2l1.3,2.3c0.2,0.3,0.1,0.6-0.2,0.8l-10.5,6.1
				c-0.3,0.2-0.6,0.1-0.8-0.2l-1.3-2.3C669,181.2,669.1,181,669.5,180.8z"/>
			<path class="st115" d="M655.6,168.3l6.1-10.5c0.2-0.3,0.5-0.4,0.8-0.2l2.3,1.3c0.3,0.2,0.4,0.5,0.2,0.8l-6.1,10.5
				c-0.2,0.3-0.5,0.4-0.8,0.2l-2.3-1.3C655.5,168.9,655.4,168.7,655.6,168.3z"/>
		</g>
	</g>
</g>
<g id="Manesilla_minutero_1_">
	<path class="st108" d="M638.3,202.3L615,196c-0.3-0.1-0.5-0.4-0.4-0.7l0.8-3.1c0.1-0.3,0.4-0.5,0.7-0.4l23.3,6.3
		c0.3,0.1,0.5,0.4,0.4,0.7l-0.8,3.1C638.9,202.2,638.6,202.4,638.3,202.3z"/>
	<path class="st116" d="M662.7,208.9l-23.3-6.3c-0.3-0.1-0.5-0.4-0.4-0.7l0.8-3.1c0.1-0.3,0.4-0.5,0.7-0.4l23.3,6.3
		c0.3,0.1,0.5,0.4,0.4,0.7l-0.8,3.1C663.2,208.9,662.9,209,662.7,208.9z"/>
	<path class="st115" d="M642.3,202c-0.9,1.7-2.9,2.3-4.6,1.4c-1.7-0.9-2.3-2.9-1.4-4.6c0.9-1.7,2.9-2.3,4.6-1.4
		C642.6,198.3,643.2,200.4,642.3,202z"/>
</g>
<g id="Manesilla_segundero_2_">
	<path class="st108" d="M637.3,199.6l4-33.8c0-0.3,0.3-0.5,0.6-0.5l3.2,0.4c0.3,0,0.5,0.3,0.5,0.6l-4,33.8c0,0.3-0.3,0.5-0.6,0.5
		l-3.2-0.4C637.5,200.2,637.3,199.9,637.3,199.6z"/>
	<path class="st117" d="M633.2,234.5l4-33.8c0-0.3,0.3-0.5,0.6-0.5l3.2,0.4c0.3,0,0.5,0.3,0.5,0.6l-4,33.8c0,0.3-0.3,0.5-0.6,0.5
		l-3.2-0.4C633.4,235,633.2,234.8,633.2,234.5z"/>
	<path class="st115" d="M638.2,203.6c-1.8-0.6-2.7-2.6-2-4.3c0.6-1.8,2.6-2.7,4.3-2c1.8,0.6,2.7,2.6,2,4.3
		C641.9,203.3,640,204.2,638.2,203.6z"/>
</g>
</svg>
